<?xml version="1.0" encoding="utf-8"?>
<!-- Svg Vector Icons : http://www.onlinewebfonts.com/icon -->
<!DOCTYPE svg PUBLIC "-//W3C//DTD SVG 1.1//EN" "http://www.w3.org/Graphics/SVG/1.1/DTD/svg11.dtd">
<svg version="1.1" xmlns="http://www.w3.org/2000/svg" xmlns:xlink="http://www.w3.org/1999/xlink" x="0px" y="0px" viewBox="0 0 1000 1000" enable-background="new 0 0 1000 1000" xml:space="preserve">
<metadata> Svg Vector Icons : http://www.onlinewebfonts.com/icon </metadata>
<g><path d="M500,10C229.4,10,10,229.4,10,500c0,270.6,219.4,490,490,490c270.6,0,490-219.4,490-490C990,229.4,770.6,10,500,10z M820.3,820.3C735.1,905.5,618.2,954,497.6,954c-120.6,0-237.5-48.5-322.7-133.7C89.7,735.1,41.2,618.2,41.2,497.6c0-120.6,48.5-237.5,133.7-322.7S377.1,41.3,497.6,41.3c120.6,0,237.5,48.5,322.7,133.7C905.5,260.1,954,377.1,954,497.6S905.5,735.1,820.3,820.3z"/><path d="M751.9,778.4L221.6,248.1l26.5-26.5l530.3,530.3L751.9,778.4z"/><path d="M778.4,248.1L248.1,778.4l-26.5-26.5l530.3-530.3L778.4,248.1z"/></g>
</svg>